<mxfile host="app.diagrams.net" modified="2022-12-15T03:20:39.687Z" agent="5.0 (Windows NT 10.0; Win64; x64) AppleWebKit/537.36 (KHTML, like Gecko) Chrome/108.0.0.0 Safari/537.36" etag="x5bW7lCUo7bFlW53KHrY" version="20.4.0" type="github">
  <diagram id="j4gb3YxybMi6x4QvCUNP" name="Page-1">
    <mxGraphModel dx="981" dy="542" grid="1" gridSize="10" guides="1" tooltips="1" connect="1" arrows="1" fold="1" page="1" pageScale="1" pageWidth="850" pageHeight="1100" math="0" shadow="0">
      <root>
        <mxCell id="0" />
        <mxCell id="1" parent="0" />
        <mxCell id="vwPBnHP1gXOLa6HM89km-4" style="edgeStyle=orthogonalEdgeStyle;rounded=0;orthogonalLoop=1;jettySize=auto;html=1;entryX=0;entryY=0.5;entryDx=0;entryDy=0;" edge="1" parent="1" source="vwPBnHP1gXOLa6HM89km-1" target="vwPBnHP1gXOLa6HM89km-3">
          <mxGeometry relative="1" as="geometry" />
        </mxCell>
        <mxCell id="vwPBnHP1gXOLa6HM89km-1" value="A" style="ellipse;whiteSpace=wrap;html=1;aspect=fixed;" vertex="1" parent="1">
          <mxGeometry x="40" y="200" width="50" height="50" as="geometry" />
        </mxCell>
        <mxCell id="vwPBnHP1gXOLa6HM89km-6" style="edgeStyle=orthogonalEdgeStyle;rounded=0;orthogonalLoop=1;jettySize=auto;html=1;" edge="1" parent="1" source="vwPBnHP1gXOLa6HM89km-2" target="vwPBnHP1gXOLa6HM89km-5">
          <mxGeometry relative="1" as="geometry" />
        </mxCell>
        <mxCell id="vwPBnHP1gXOLa6HM89km-2" value="B" style="ellipse;whiteSpace=wrap;html=1;aspect=fixed;" vertex="1" parent="1">
          <mxGeometry x="40" y="300" width="50" height="50" as="geometry" />
        </mxCell>
        <mxCell id="vwPBnHP1gXOLa6HM89km-8" style="edgeStyle=orthogonalEdgeStyle;rounded=0;orthogonalLoop=1;jettySize=auto;html=1;" edge="1" parent="1" source="vwPBnHP1gXOLa6HM89km-3" target="vwPBnHP1gXOLa6HM89km-7">
          <mxGeometry relative="1" as="geometry" />
        </mxCell>
        <mxCell id="vwPBnHP1gXOLa6HM89km-3" value="C" style="ellipse;whiteSpace=wrap;html=1;aspect=fixed;" vertex="1" parent="1">
          <mxGeometry x="160" y="200" width="50" height="50" as="geometry" />
        </mxCell>
        <mxCell id="vwPBnHP1gXOLa6HM89km-9" style="edgeStyle=orthogonalEdgeStyle;rounded=0;orthogonalLoop=1;jettySize=auto;html=1;" edge="1" parent="1" source="vwPBnHP1gXOLa6HM89km-5" target="vwPBnHP1gXOLa6HM89km-7">
          <mxGeometry relative="1" as="geometry" />
        </mxCell>
        <mxCell id="vwPBnHP1gXOLa6HM89km-14" style="edgeStyle=orthogonalEdgeStyle;rounded=0;orthogonalLoop=1;jettySize=auto;html=1;entryX=0;entryY=0.5;entryDx=0;entryDy=0;" edge="1" parent="1" source="vwPBnHP1gXOLa6HM89km-5" target="vwPBnHP1gXOLa6HM89km-11">
          <mxGeometry relative="1" as="geometry">
            <Array as="points">
              <mxPoint x="185" y="375" />
            </Array>
          </mxGeometry>
        </mxCell>
        <mxCell id="vwPBnHP1gXOLa6HM89km-5" value="D" style="ellipse;whiteSpace=wrap;html=1;aspect=fixed;" vertex="1" parent="1">
          <mxGeometry x="160" y="300" width="50" height="50" as="geometry" />
        </mxCell>
        <mxCell id="vwPBnHP1gXOLa6HM89km-7" value="E" style="ellipse;whiteSpace=wrap;html=1;aspect=fixed;" vertex="1" parent="1">
          <mxGeometry x="280" y="200" width="50" height="50" as="geometry" />
        </mxCell>
        <mxCell id="vwPBnHP1gXOLa6HM89km-16" style="edgeStyle=orthogonalEdgeStyle;rounded=0;orthogonalLoop=1;jettySize=auto;html=1;entryX=0.5;entryY=1;entryDx=0;entryDy=0;" edge="1" parent="1" source="vwPBnHP1gXOLa6HM89km-11" target="vwPBnHP1gXOLa6HM89km-15">
          <mxGeometry relative="1" as="geometry" />
        </mxCell>
        <mxCell id="vwPBnHP1gXOLa6HM89km-11" value="F" style="ellipse;whiteSpace=wrap;html=1;aspect=fixed;" vertex="1" parent="1">
          <mxGeometry x="280" y="350" width="50" height="50" as="geometry" />
        </mxCell>
        <mxCell id="vwPBnHP1gXOLa6HM89km-21" style="edgeStyle=orthogonalEdgeStyle;rounded=0;orthogonalLoop=1;jettySize=auto;html=1;" edge="1" parent="1" source="vwPBnHP1gXOLa6HM89km-15" target="vwPBnHP1gXOLa6HM89km-19">
          <mxGeometry relative="1" as="geometry" />
        </mxCell>
        <mxCell id="vwPBnHP1gXOLa6HM89km-22" style="edgeStyle=orthogonalEdgeStyle;rounded=0;orthogonalLoop=1;jettySize=auto;html=1;" edge="1" parent="1" source="vwPBnHP1gXOLa6HM89km-15" target="vwPBnHP1gXOLa6HM89km-20">
          <mxGeometry relative="1" as="geometry" />
        </mxCell>
        <mxCell id="vwPBnHP1gXOLa6HM89km-15" value="G" style="ellipse;whiteSpace=wrap;html=1;aspect=fixed;" vertex="1" parent="1">
          <mxGeometry x="360" y="270" width="50" height="50" as="geometry" />
        </mxCell>
        <mxCell id="vwPBnHP1gXOLa6HM89km-19" value="J" style="ellipse;whiteSpace=wrap;html=1;aspect=fixed;" vertex="1" parent="1">
          <mxGeometry x="440" y="330" width="50" height="50" as="geometry" />
        </mxCell>
        <mxCell id="vwPBnHP1gXOLa6HM89km-20" value="H" style="ellipse;whiteSpace=wrap;html=1;aspect=fixed;" vertex="1" parent="1">
          <mxGeometry x="440" y="200" width="50" height="50" as="geometry" />
        </mxCell>
        <mxCell id="vwPBnHP1gXOLa6HM89km-44" style="edgeStyle=orthogonalEdgeStyle;rounded=0;orthogonalLoop=1;jettySize=auto;html=1;entryX=0.5;entryY=1;entryDx=0;entryDy=0;" edge="1" parent="1" source="vwPBnHP1gXOLa6HM89km-23" target="vwPBnHP1gXOLa6HM89km-43">
          <mxGeometry relative="1" as="geometry" />
        </mxCell>
        <mxCell id="vwPBnHP1gXOLa6HM89km-23" value="L" style="ellipse;whiteSpace=wrap;html=1;aspect=fixed;" vertex="1" parent="1">
          <mxGeometry x="560" y="330" width="50" height="50" as="geometry" />
        </mxCell>
        <mxCell id="vwPBnHP1gXOLa6HM89km-45" style="edgeStyle=orthogonalEdgeStyle;rounded=0;orthogonalLoop=1;jettySize=auto;html=1;entryX=0.5;entryY=0;entryDx=0;entryDy=0;" edge="1" parent="1" source="vwPBnHP1gXOLa6HM89km-24" target="vwPBnHP1gXOLa6HM89km-43">
          <mxGeometry relative="1" as="geometry" />
        </mxCell>
        <mxCell id="vwPBnHP1gXOLa6HM89km-24" value="K" style="ellipse;whiteSpace=wrap;html=1;aspect=fixed;" vertex="1" parent="1">
          <mxGeometry x="560" y="200" width="50" height="50" as="geometry" />
        </mxCell>
        <mxCell id="vwPBnHP1gXOLa6HM89km-36" value="" style="endArrow=none;html=1;rounded=0;exitX=1;exitY=0.5;exitDx=0;exitDy=0;" edge="1" parent="1" source="vwPBnHP1gXOLa6HM89km-20">
          <mxGeometry width="50" height="50" relative="1" as="geometry">
            <mxPoint x="490" y="270" as="sourcePoint" />
            <mxPoint x="520" y="300" as="targetPoint" />
            <Array as="points">
              <mxPoint x="520" y="225" />
            </Array>
          </mxGeometry>
        </mxCell>
        <mxCell id="vwPBnHP1gXOLa6HM89km-37" value="" style="endArrow=none;html=1;rounded=0;exitX=1;exitY=0.5;exitDx=0;exitDy=0;" edge="1" parent="1" source="vwPBnHP1gXOLa6HM89km-19">
          <mxGeometry width="50" height="50" relative="1" as="geometry">
            <mxPoint x="490" y="400" as="sourcePoint" />
            <mxPoint x="520" y="300" as="targetPoint" />
            <Array as="points">
              <mxPoint x="520" y="355" />
            </Array>
          </mxGeometry>
        </mxCell>
        <mxCell id="vwPBnHP1gXOLa6HM89km-38" value="" style="endArrow=none;html=1;rounded=0;" edge="1" parent="1">
          <mxGeometry width="50" height="50" relative="1" as="geometry">
            <mxPoint x="520" y="290" as="sourcePoint" />
            <mxPoint x="580" y="290" as="targetPoint" />
          </mxGeometry>
        </mxCell>
        <mxCell id="vwPBnHP1gXOLa6HM89km-41" value="" style="endArrow=classic;startArrow=classic;html=1;rounded=0;entryX=0.5;entryY=1;entryDx=0;entryDy=0;" edge="1" parent="1" source="vwPBnHP1gXOLa6HM89km-23" target="vwPBnHP1gXOLa6HM89km-24">
          <mxGeometry width="50" height="50" relative="1" as="geometry">
            <mxPoint x="600" y="340" as="sourcePoint" />
            <mxPoint x="650" y="290" as="targetPoint" />
            <Array as="points">
              <mxPoint x="580" y="290" />
            </Array>
          </mxGeometry>
        </mxCell>
        <mxCell id="vwPBnHP1gXOLa6HM89km-47" style="edgeStyle=orthogonalEdgeStyle;rounded=0;orthogonalLoop=1;jettySize=auto;html=1;entryX=0;entryY=0.5;entryDx=0;entryDy=0;" edge="1" parent="1" source="vwPBnHP1gXOLa6HM89km-43" target="vwPBnHP1gXOLa6HM89km-46">
          <mxGeometry relative="1" as="geometry" />
        </mxCell>
        <mxCell id="vwPBnHP1gXOLa6HM89km-43" value="M" style="ellipse;whiteSpace=wrap;html=1;aspect=fixed;" vertex="1" parent="1">
          <mxGeometry x="640" y="260" width="50" height="50" as="geometry" />
        </mxCell>
        <mxCell id="vwPBnHP1gXOLa6HM89km-46" value="N" style="ellipse;whiteSpace=wrap;html=1;aspect=fixed;" vertex="1" parent="1">
          <mxGeometry x="720" y="260" width="50" height="50" as="geometry" />
        </mxCell>
      </root>
    </mxGraphModel>
  </diagram>
</mxfile>
